<svg width="1463" height="65" viewBox="0 0 1463 65" fill="none" xmlns="http://www.w3.org/2000/svg">
<rect width="1463" height="65" fill="#303030"/>
<path d="M889.569 38.5166V26.6166H893.581V35.4056H898.953V38.5166H889.569ZM899.806 38.5166V26.6166H903.818V38.5166H899.806ZM909.235 38.5166L904.203 26.6166H908.521L912.618 36.6636H910.051L914.267 26.6166H918.211L913.179 38.5166H909.235ZM918.578 32.6686L920.006 27.8916L920.567 30.0336C919.91 30.0336 919.372 29.8466 918.952 29.4726C918.533 29.0873 918.323 28.5659 918.323 27.9086C918.323 27.2399 918.533 26.7129 918.952 26.3276C919.383 25.9309 919.921 25.7326 920.567 25.7326C921.213 25.7326 921.746 25.9309 922.165 26.3276C922.596 26.7129 922.811 27.2399 922.811 27.9086C922.811 28.0899 922.794 28.2713 922.76 28.4526C922.738 28.6339 922.681 28.8549 922.59 29.1156C922.5 29.3649 922.352 29.7049 922.148 30.1356L920.958 32.6686H918.578ZM923.861 38.5166V26.6166H927.873V35.4056H933.245V38.5166H923.861ZM935.962 38.5166V33.2976L936.88 35.6946L931.474 26.6166H935.707L939.362 32.8216H936.897L940.586 26.6166H944.462L939.09 35.6946L939.974 33.2976V38.5166H935.962ZM950.441 38.7886C949.478 38.7886 948.582 38.6356 947.755 38.3296C946.939 38.0236 946.231 37.5929 945.63 37.0376C945.029 36.4709 944.559 35.8079 944.219 35.0486C943.89 34.2893 943.726 33.4619 943.726 32.5666C943.726 31.6599 943.89 30.8326 944.219 30.0846C944.559 29.3253 945.029 28.6679 945.63 28.1126C946.231 27.5459 946.939 27.1096 947.755 26.8036C948.582 26.4976 949.478 26.3446 950.441 26.3446C951.416 26.3446 952.311 26.4976 953.127 26.8036C953.943 27.1096 954.651 27.5459 955.252 28.1126C955.853 28.6679 956.317 29.3253 956.646 30.0846C956.986 30.8326 957.156 31.6599 957.156 32.5666C957.156 33.4619 956.986 34.2893 956.646 35.0486C956.317 35.8079 955.853 36.4709 955.252 37.0376C954.651 37.5929 953.943 38.0236 953.127 38.3296C952.311 38.6356 951.416 38.7886 950.441 38.7886ZM950.441 35.5416C950.815 35.5416 951.161 35.4736 951.478 35.3376C951.807 35.2016 952.09 35.0089 952.328 34.7596C952.577 34.4989 952.77 34.1873 952.906 33.8246C953.042 33.4506 953.11 33.0313 953.11 32.5666C953.11 32.1019 953.042 31.6883 952.906 31.3256C952.77 30.9516 952.577 30.6399 952.328 30.3906C952.09 30.1299 951.807 29.9316 951.478 29.7956C951.161 29.6596 950.815 29.5916 950.441 29.5916C950.067 29.5916 949.716 29.6596 949.387 29.7956C949.07 29.9316 948.786 30.1299 948.537 30.3906C948.299 30.6399 948.112 30.9516 947.976 31.3256C947.84 31.6883 947.772 32.1019 947.772 32.5666C947.772 33.0313 947.84 33.4506 947.976 33.8246C948.112 34.1873 948.299 34.4989 948.537 34.7596C948.786 35.0089 949.07 35.2016 949.387 35.3376C949.716 35.4736 950.067 35.5416 950.441 35.5416ZM958.357 38.5166V26.6166H961.655L967.707 33.8586H966.177V26.6166H970.087V38.5166H966.789L960.737 31.2746H962.267V38.5166H958.357Z" fill="white"/>
<path d="M497.569 38.5166V26.6166H501.581V35.4056H506.953V38.5166H497.569ZM507.806 38.5166V26.6166H511.818V38.5166H507.806ZM517.235 38.5166L512.203 26.6166H516.521L520.618 36.6636H518.051L522.267 26.6166H526.211L521.179 38.5166H517.235ZM526.578 32.6686L528.006 27.8916L528.567 30.0336C527.91 30.0336 527.372 29.8466 526.952 29.4726C526.533 29.0873 526.323 28.5659 526.323 27.9086C526.323 27.2399 526.533 26.7129 526.952 26.3276C527.383 25.9309 527.921 25.7326 528.567 25.7326C529.213 25.7326 529.746 25.9309 530.165 26.3276C530.596 26.7129 530.811 27.2399 530.811 27.9086C530.811 28.0899 530.794 28.2713 530.76 28.4526C530.738 28.6339 530.681 28.8549 530.59 29.1156C530.5 29.3649 530.352 29.7049 530.148 30.1356L528.958 32.6686H526.578ZM531.861 38.5166V26.6166H535.873V35.4056H541.245V38.5166H531.861ZM543.962 38.5166V33.2976L544.88 35.6946L539.474 26.6166H543.707L547.362 32.8216H544.897L548.586 26.6166H552.462L547.09 35.6946L547.974 33.2976V38.5166H543.962ZM558.441 38.7886C557.478 38.7886 556.582 38.6356 555.755 38.3296C554.939 38.0236 554.231 37.5929 553.63 37.0376C553.029 36.4709 552.559 35.8079 552.219 35.0486C551.89 34.2893 551.726 33.4619 551.726 32.5666C551.726 31.6599 551.89 30.8326 552.219 30.0846C552.559 29.3253 553.029 28.6679 553.63 28.1126C554.231 27.5459 554.939 27.1096 555.755 26.8036C556.582 26.4976 557.478 26.3446 558.441 26.3446C559.416 26.3446 560.311 26.4976 561.127 26.8036C561.943 27.1096 562.651 27.5459 563.252 28.1126C563.853 28.6679 564.317 29.3253 564.646 30.0846C564.986 30.8326 565.156 31.6599 565.156 32.5666C565.156 33.4619 564.986 34.2893 564.646 35.0486C564.317 35.8079 563.853 36.4709 563.252 37.0376C562.651 37.5929 561.943 38.0236 561.127 38.3296C560.311 38.6356 559.416 38.7886 558.441 38.7886ZM558.441 35.5416C558.815 35.5416 559.161 35.4736 559.478 35.3376C559.807 35.2016 560.09 35.0089 560.328 34.7596C560.577 34.4989 560.77 34.1873 560.906 33.8246C561.042 33.4506 561.11 33.0313 561.11 32.5666C561.11 32.1019 561.042 31.6883 560.906 31.3256C560.77 30.9516 560.577 30.6399 560.328 30.3906C560.09 30.1299 559.807 29.9316 559.478 29.7956C559.161 29.6596 558.815 29.5916 558.441 29.5916C558.067 29.5916 557.716 29.6596 557.387 29.7956C557.07 29.9316 556.786 30.1299 556.537 30.3906C556.299 30.6399 556.112 30.9516 555.976 31.3256C555.84 31.6883 555.772 32.1019 555.772 32.5666C555.772 33.0313 555.84 33.4506 555.976 33.8246C556.112 34.1873 556.299 34.4989 556.537 34.7596C556.786 35.0089 557.07 35.2016 557.387 35.3376C557.716 35.4736 558.067 35.5416 558.441 35.5416ZM566.357 38.5166V26.6166H569.655L575.707 33.8586H574.177V26.6166H578.087V38.5166H574.789L568.737 31.2746H570.267V38.5166H566.357Z" fill="white"/>
<path d="M42.8256 16.5166L44.7592 22.9198L49.13 17.8566L48.292 24.4927L54.3444 21.6451L50.8797 27.3666L57.567 27.2268L52.0747 31.0445L58.2407 33.6368L51.6704 34.8905L56.249 39.7666L49.7369 38.2395L51.9363 44.5564L46.6083 40.5126L46.0483 47.1779L42.8256 41.3166L39.603 47.1779L39.043 40.5126L33.715 44.5564L35.9144 38.2395L29.4022 39.7666L33.9808 34.8905L27.4105 33.6368L33.5766 31.0445L28.0842 27.2268L34.7716 27.3666L31.3069 21.6451L37.3592 24.4927L36.5212 17.8566L40.892 22.9198L42.8256 16.5166Z" fill="white"/>
<path d="M243.826 16.5166L245.759 22.9198L250.13 17.8566L249.292 24.4927L255.344 21.6451L251.88 27.3666L258.567 27.2268L253.075 31.0445L259.241 33.6368L252.671 34.8905L257.249 39.7666L250.737 38.2395L252.936 44.5564L247.608 40.5126L247.048 47.1779L243.826 41.3166L240.603 47.1779L240.043 40.5126L234.715 44.5564L236.914 38.2395L230.402 39.7666L234.981 34.8905L228.411 33.6368L234.577 31.0445L229.084 27.2268L235.772 27.3666L232.307 21.6451L238.359 24.4927L237.521 17.8566L241.892 22.9198L243.826 16.5166Z" fill="white"/>
<path d="M439.825 16.5166L441.759 22.9198L446.13 17.8566L445.292 24.4927L451.344 21.6451L447.879 27.3666L454.567 27.2268L449.074 31.0445L455.241 33.6368L448.67 34.8905L453.249 39.7666L446.737 38.2395L448.936 44.5564L443.608 40.5126L443.048 47.1779L439.825 41.3166L436.603 47.1779L436.043 40.5126L430.715 44.5564L432.914 38.2395L426.402 39.7666L430.981 34.8905L424.41 33.6368L430.576 31.0445L425.084 27.2268L431.771 27.3666L428.307 21.6451L434.359 24.4927L433.521 17.8566L437.892 22.9198L439.825 16.5166Z" fill="white"/>
<path d="M635.826 16.5166L637.759 22.9198L642.13 17.8566L641.292 24.4927L647.344 21.6451L643.88 27.3666L650.567 27.2268L645.075 31.0445L651.241 33.6368L644.671 34.8905L649.249 39.7666L642.737 38.2395L644.936 44.5564L639.608 40.5126L639.048 47.1779L635.826 41.3166L632.603 47.1779L632.043 40.5126L626.715 44.5564L628.914 38.2395L622.402 39.7666L626.981 34.8905L620.411 33.6368L626.577 31.0445L621.084 27.2268L627.772 27.3666L624.307 21.6451L630.359 24.4927L629.521 17.8566L633.892 22.9198L635.826 16.5166Z" fill="white"/>
<path d="M831.826 16.5166L833.759 22.9198L838.13 17.8566L837.292 24.4927L843.344 21.6451L839.88 27.3666L846.567 27.2268L841.075 31.0445L847.241 33.6368L840.671 34.8905L845.249 39.7666L838.737 38.2395L840.936 44.5564L835.608 40.5126L835.048 47.1779L831.826 41.3166L828.603 47.1779L828.043 40.5126L822.715 44.5564L824.914 38.2395L818.402 39.7666L822.981 34.8905L816.411 33.6368L822.577 31.0445L817.084 27.2268L823.772 27.3666L820.307 21.6451L826.359 24.4927L825.521 17.8566L829.892 22.9198L831.826 16.5166Z" fill="white"/>
<path d="M1027.83 16.5166L1029.76 22.9198L1034.13 17.8566L1033.29 24.4927L1039.34 21.6451L1035.88 27.3666L1042.57 27.2268L1037.07 31.0445L1043.24 33.6368L1036.67 34.8905L1041.25 39.7666L1034.74 38.2395L1036.94 44.5564L1031.61 40.5126L1031.05 47.1779L1027.83 41.3166L1024.6 47.1779L1024.04 40.5126L1018.72 44.5564L1020.91 38.2395L1014.4 39.7666L1018.98 34.8905L1012.41 33.6368L1018.58 31.0445L1013.08 27.2268L1019.77 27.3666L1016.31 21.6451L1022.36 24.4927L1021.52 17.8566L1025.89 22.9198L1027.83 16.5166Z" fill="white"/>
<path d="M1223.83 16.5166L1225.76 22.9198L1230.13 17.8566L1229.29 24.4927L1235.34 21.6451L1231.88 27.3666L1238.57 27.2268L1233.07 31.0445L1239.24 33.6368L1232.67 34.8905L1237.25 39.7666L1230.74 38.2395L1232.94 44.5564L1227.61 40.5126L1227.05 47.1779L1223.83 41.3166L1220.6 47.1779L1220.04 40.5126L1214.72 44.5564L1216.91 38.2395L1210.4 39.7666L1214.98 34.8905L1208.41 33.6368L1214.58 31.0445L1209.08 27.2268L1215.77 27.3666L1212.31 21.6451L1218.36 24.4927L1217.52 17.8566L1221.89 22.9198L1223.83 16.5166Z" fill="white"/>
<path d="M1419.83 16.5166L1421.76 22.9198L1426.13 17.8566L1425.29 24.4927L1431.34 21.6451L1427.88 27.3666L1434.57 27.2268L1429.07 31.0445L1435.24 33.6368L1428.67 34.8905L1433.25 39.7666L1426.74 38.2395L1428.94 44.5564L1423.61 40.5126L1423.05 47.1779L1419.83 41.3166L1416.6 47.1779L1416.04 40.5126L1410.72 44.5564L1412.91 38.2395L1406.4 39.7666L1410.98 34.8905L1404.41 33.6368L1410.58 31.0445L1405.08 27.2268L1411.77 27.3666L1408.31 21.6451L1414.36 24.4927L1413.52 17.8566L1417.89 22.9198L1419.83 16.5166Z" fill="white"/>
<path d="M105.569 38.5166V26.6166H109.581V35.4056H114.953V38.5166H105.569ZM115.806 38.5166V26.6166H119.818V38.5166H115.806ZM125.235 38.5166L120.203 26.6166H124.521L128.618 36.6636H126.051L130.267 26.6166H134.211L129.179 38.5166H125.235ZM134.578 32.6686L136.006 27.8916L136.567 30.0336C135.91 30.0336 135.372 29.8466 134.952 29.4726C134.533 29.0873 134.323 28.5659 134.323 27.9086C134.323 27.2399 134.533 26.7129 134.952 26.3276C135.383 25.9309 135.921 25.7326 136.567 25.7326C137.213 25.7326 137.746 25.9309 138.165 26.3276C138.596 26.7129 138.811 27.2399 138.811 27.9086C138.811 28.0899 138.794 28.2713 138.76 28.4526C138.738 28.6339 138.681 28.8549 138.59 29.1156C138.5 29.3649 138.352 29.7049 138.148 30.1356L136.958 32.6686H134.578ZM139.861 38.5166V26.6166H143.873V35.4056H149.245V38.5166H139.861ZM151.962 38.5166V33.2976L152.88 35.6946L147.474 26.6166H151.707L155.362 32.8216H152.897L156.586 26.6166H160.462L155.09 35.6946L155.974 33.2976V38.5166H151.962ZM166.441 38.7886C165.478 38.7886 164.582 38.6356 163.755 38.3296C162.939 38.0236 162.231 37.5929 161.63 37.0376C161.029 36.4709 160.559 35.8079 160.219 35.0486C159.89 34.2893 159.726 33.4619 159.726 32.5666C159.726 31.6599 159.89 30.8326 160.219 30.0846C160.559 29.3253 161.029 28.6679 161.63 28.1126C162.231 27.5459 162.939 27.1096 163.755 26.8036C164.582 26.4976 165.478 26.3446 166.441 26.3446C167.416 26.3446 168.311 26.4976 169.127 26.8036C169.943 27.1096 170.651 27.5459 171.252 28.1126C171.853 28.6679 172.317 29.3253 172.646 30.0846C172.986 30.8326 173.156 31.6599 173.156 32.5666C173.156 33.4619 172.986 34.2893 172.646 35.0486C172.317 35.8079 171.853 36.4709 171.252 37.0376C170.651 37.5929 169.943 38.0236 169.127 38.3296C168.311 38.6356 167.416 38.7886 166.441 38.7886ZM166.441 35.5416C166.815 35.5416 167.161 35.4736 167.478 35.3376C167.807 35.2016 168.09 35.0089 168.328 34.7596C168.577 34.4989 168.77 34.1873 168.906 33.8246C169.042 33.4506 169.11 33.0313 169.11 32.5666C169.11 32.1019 169.042 31.6883 168.906 31.3256C168.77 30.9516 168.577 30.6399 168.328 30.3906C168.09 30.1299 167.807 29.9316 167.478 29.7956C167.161 29.6596 166.815 29.5916 166.441 29.5916C166.067 29.5916 165.716 29.6596 165.387 29.7956C165.07 29.9316 164.786 30.1299 164.537 30.3906C164.299 30.6399 164.112 30.9516 163.976 31.3256C163.84 31.6883 163.772 32.1019 163.772 32.5666C163.772 33.0313 163.84 33.4506 163.976 33.8246C164.112 34.1873 164.299 34.4989 164.537 34.7596C164.786 35.0089 165.07 35.2016 165.387 35.3376C165.716 35.4736 166.067 35.5416 166.441 35.5416ZM174.357 38.5166V26.6166H177.655L183.707 33.8586H182.177V26.6166H186.087V38.5166H182.789L176.737 31.2746H178.267V38.5166H174.357Z" fill="white"/>
<path d="M301.569 38.5166V26.6166H305.581V35.4056H310.953V38.5166H301.569ZM311.806 38.5166V26.6166H315.818V38.5166H311.806ZM321.235 38.5166L316.203 26.6166H320.521L324.618 36.6636H322.051L326.267 26.6166H330.211L325.179 38.5166H321.235ZM330.578 32.6686L332.006 27.8916L332.567 30.0336C331.91 30.0336 331.372 29.8466 330.952 29.4726C330.533 29.0873 330.323 28.5659 330.323 27.9086C330.323 27.2399 330.533 26.7129 330.952 26.3276C331.383 25.9309 331.921 25.7326 332.567 25.7326C333.213 25.7326 333.746 25.9309 334.165 26.3276C334.596 26.7129 334.811 27.2399 334.811 27.9086C334.811 28.0899 334.794 28.2713 334.76 28.4526C334.738 28.6339 334.681 28.8549 334.59 29.1156C334.5 29.3649 334.352 29.7049 334.148 30.1356L332.958 32.6686H330.578ZM335.861 38.5166V26.6166H339.873V35.4056H345.245V38.5166H335.861ZM347.962 38.5166V33.2976L348.88 35.6946L343.474 26.6166H347.707L351.362 32.8216H348.897L352.586 26.6166H356.462L351.09 35.6946L351.974 33.2976V38.5166H347.962ZM362.441 38.7886C361.478 38.7886 360.582 38.6356 359.755 38.3296C358.939 38.0236 358.231 37.5929 357.63 37.0376C357.029 36.4709 356.559 35.8079 356.219 35.0486C355.89 34.2893 355.726 33.4619 355.726 32.5666C355.726 31.6599 355.89 30.8326 356.219 30.0846C356.559 29.3253 357.029 28.6679 357.63 28.1126C358.231 27.5459 358.939 27.1096 359.755 26.8036C360.582 26.4976 361.478 26.3446 362.441 26.3446C363.416 26.3446 364.311 26.4976 365.127 26.8036C365.943 27.1096 366.651 27.5459 367.252 28.1126C367.853 28.6679 368.317 29.3253 368.646 30.0846C368.986 30.8326 369.156 31.6599 369.156 32.5666C369.156 33.4619 368.986 34.2893 368.646 35.0486C368.317 35.8079 367.853 36.4709 367.252 37.0376C366.651 37.5929 365.943 38.0236 365.127 38.3296C364.311 38.6356 363.416 38.7886 362.441 38.7886ZM362.441 35.5416C362.815 35.5416 363.161 35.4736 363.478 35.3376C363.807 35.2016 364.09 35.0089 364.328 34.7596C364.577 34.4989 364.77 34.1873 364.906 33.8246C365.042 33.4506 365.11 33.0313 365.11 32.5666C365.11 32.1019 365.042 31.6883 364.906 31.3256C364.77 30.9516 364.577 30.6399 364.328 30.3906C364.09 30.1299 363.807 29.9316 363.478 29.7956C363.161 29.6596 362.815 29.5916 362.441 29.5916C362.067 29.5916 361.716 29.6596 361.387 29.7956C361.07 29.9316 360.786 30.1299 360.537 30.3906C360.299 30.6399 360.112 30.9516 359.976 31.3256C359.84 31.6883 359.772 32.1019 359.772 32.5666C359.772 33.0313 359.84 33.4506 359.976 33.8246C360.112 34.1873 360.299 34.4989 360.537 34.7596C360.786 35.0089 361.07 35.2016 361.387 35.3376C361.716 35.4736 362.067 35.5416 362.441 35.5416ZM370.357 38.5166V26.6166H373.655L379.707 33.8586H378.177V26.6166H382.087V38.5166H378.789L372.737 31.2746H374.267V38.5166H370.357Z" fill="white"/>
<path d="M693.569 38.5166V26.6166H697.581V35.4056H702.953V38.5166H693.569ZM703.806 38.5166V26.6166H707.818V38.5166H703.806ZM713.235 38.5166L708.203 26.6166H712.521L716.618 36.6636H714.051L718.267 26.6166H722.211L717.179 38.5166H713.235ZM722.578 32.6686L724.006 27.8916L724.567 30.0336C723.91 30.0336 723.372 29.8466 722.952 29.4726C722.533 29.0873 722.323 28.5659 722.323 27.9086C722.323 27.2399 722.533 26.7129 722.952 26.3276C723.383 25.9309 723.921 25.7326 724.567 25.7326C725.213 25.7326 725.746 25.9309 726.165 26.3276C726.596 26.7129 726.811 27.2399 726.811 27.9086C726.811 28.0899 726.794 28.2713 726.76 28.4526C726.738 28.6339 726.681 28.8549 726.59 29.1156C726.5 29.3649 726.352 29.7049 726.148 30.1356L724.958 32.6686H722.578ZM727.861 38.5166V26.6166H731.873V35.4056H737.245V38.5166H727.861ZM739.962 38.5166V33.2976L740.88 35.6946L735.474 26.6166H739.707L743.362 32.8216H740.897L744.586 26.6166H748.462L743.09 35.6946L743.974 33.2976V38.5166H739.962ZM754.441 38.7886C753.478 38.7886 752.582 38.6356 751.755 38.3296C750.939 38.0236 750.231 37.5929 749.63 37.0376C749.029 36.4709 748.559 35.8079 748.219 35.0486C747.89 34.2893 747.726 33.4619 747.726 32.5666C747.726 31.6599 747.89 30.8326 748.219 30.0846C748.559 29.3253 749.029 28.6679 749.63 28.1126C750.231 27.5459 750.939 27.1096 751.755 26.8036C752.582 26.4976 753.478 26.3446 754.441 26.3446C755.416 26.3446 756.311 26.4976 757.127 26.8036C757.943 27.1096 758.651 27.5459 759.252 28.1126C759.853 28.6679 760.317 29.3253 760.646 30.0846C760.986 30.8326 761.156 31.6599 761.156 32.5666C761.156 33.4619 760.986 34.2893 760.646 35.0486C760.317 35.8079 759.853 36.4709 759.252 37.0376C758.651 37.5929 757.943 38.0236 757.127 38.3296C756.311 38.6356 755.416 38.7886 754.441 38.7886ZM754.441 35.5416C754.815 35.5416 755.161 35.4736 755.478 35.3376C755.807 35.2016 756.09 35.0089 756.328 34.7596C756.577 34.4989 756.77 34.1873 756.906 33.8246C757.042 33.4506 757.11 33.0313 757.11 32.5666C757.11 32.1019 757.042 31.6883 756.906 31.3256C756.77 30.9516 756.577 30.6399 756.328 30.3906C756.09 30.1299 755.807 29.9316 755.478 29.7956C755.161 29.6596 754.815 29.5916 754.441 29.5916C754.067 29.5916 753.716 29.6596 753.387 29.7956C753.07 29.9316 752.786 30.1299 752.537 30.3906C752.299 30.6399 752.112 30.9516 751.976 31.3256C751.84 31.6883 751.772 32.1019 751.772 32.5666C751.772 33.0313 751.84 33.4506 751.976 33.8246C752.112 34.1873 752.299 34.4989 752.537 34.7596C752.786 35.0089 753.07 35.2016 753.387 35.3376C753.716 35.4736 754.067 35.5416 754.441 35.5416ZM762.357 38.5166V26.6166H765.655L771.707 33.8586H770.177V26.6166H774.087V38.5166H770.789L764.737 31.2746H766.267V38.5166H762.357Z" fill="white"/>
<path d="M1085.57 38.5166V26.6166H1089.58V35.4056H1094.95V38.5166H1085.57ZM1095.81 38.5166V26.6166H1099.82V38.5166H1095.81ZM1105.23 38.5166L1100.2 26.6166H1104.52L1108.62 36.6636H1106.05L1110.27 26.6166H1114.21L1109.18 38.5166H1105.23ZM1114.58 32.6686L1116.01 27.8916L1116.57 30.0336C1115.91 30.0336 1115.37 29.8466 1114.95 29.4726C1114.53 29.0873 1114.32 28.5659 1114.32 27.9086C1114.32 27.2399 1114.53 26.7129 1114.95 26.3276C1115.38 25.9309 1115.92 25.7326 1116.57 25.7326C1117.21 25.7326 1117.75 25.9309 1118.17 26.3276C1118.6 26.7129 1118.81 27.2399 1118.81 27.9086C1118.81 28.0899 1118.79 28.2713 1118.76 28.4526C1118.74 28.6339 1118.68 28.8549 1118.59 29.1156C1118.5 29.3649 1118.35 29.7049 1118.15 30.1356L1116.96 32.6686H1114.58ZM1119.86 38.5166V26.6166H1123.87V35.4056H1129.24V38.5166H1119.86ZM1131.96 38.5166V33.2976L1132.88 35.6946L1127.47 26.6166H1131.71L1135.36 32.8216H1132.9L1136.59 26.6166H1140.46L1135.09 35.6946L1135.97 33.2976V38.5166H1131.96ZM1146.44 38.7886C1145.48 38.7886 1144.58 38.6356 1143.76 38.3296C1142.94 38.0236 1142.23 37.5929 1141.63 37.0376C1141.03 36.4709 1140.56 35.8079 1140.22 35.0486C1139.89 34.2893 1139.73 33.4619 1139.73 32.5666C1139.73 31.6599 1139.89 30.8326 1140.22 30.0846C1140.56 29.3253 1141.03 28.6679 1141.63 28.1126C1142.23 27.5459 1142.94 27.1096 1143.76 26.8036C1144.58 26.4976 1145.48 26.3446 1146.44 26.3446C1147.42 26.3446 1148.31 26.4976 1149.13 26.8036C1149.94 27.1096 1150.65 27.5459 1151.25 28.1126C1151.85 28.6679 1152.32 29.3253 1152.65 30.0846C1152.99 30.8326 1153.16 31.6599 1153.16 32.5666C1153.16 33.4619 1152.99 34.2893 1152.65 35.0486C1152.32 35.8079 1151.85 36.4709 1151.25 37.0376C1150.65 37.5929 1149.94 38.0236 1149.13 38.3296C1148.31 38.6356 1147.42 38.7886 1146.44 38.7886ZM1146.44 35.5416C1146.82 35.5416 1147.16 35.4736 1147.48 35.3376C1147.81 35.2016 1148.09 35.0089 1148.33 34.7596C1148.58 34.4989 1148.77 34.1873 1148.91 33.8246C1149.04 33.4506 1149.11 33.0313 1149.11 32.5666C1149.11 32.1019 1149.04 31.6883 1148.91 31.3256C1148.77 30.9516 1148.58 30.6399 1148.33 30.3906C1148.09 30.1299 1147.81 29.9316 1147.48 29.7956C1147.16 29.6596 1146.82 29.5916 1146.44 29.5916C1146.07 29.5916 1145.72 29.6596 1145.39 29.7956C1145.07 29.9316 1144.79 30.1299 1144.54 30.3906C1144.3 30.6399 1144.11 30.9516 1143.98 31.3256C1143.84 31.6883 1143.77 32.1019 1143.77 32.5666C1143.77 33.0313 1143.84 33.4506 1143.98 33.8246C1144.11 34.1873 1144.3 34.4989 1144.54 34.7596C1144.79 35.0089 1145.07 35.2016 1145.39 35.3376C1145.72 35.4736 1146.07 35.5416 1146.44 35.5416ZM1154.36 38.5166V26.6166H1157.66L1163.71 33.8586H1162.18V26.6166H1166.09V38.5166H1162.79L1156.74 31.2746H1158.27V38.5166H1154.36Z" fill="white"/>
<path d="M1281.57 38.5166V26.6166H1285.58V35.4056H1290.95V38.5166H1281.57ZM1291.81 38.5166V26.6166H1295.82V38.5166H1291.81ZM1301.23 38.5166L1296.2 26.6166H1300.52L1304.62 36.6636H1302.05L1306.27 26.6166H1310.21L1305.18 38.5166H1301.23ZM1310.58 32.6686L1312.01 27.8916L1312.57 30.0336C1311.91 30.0336 1311.37 29.8466 1310.95 29.4726C1310.53 29.0873 1310.32 28.5659 1310.32 27.9086C1310.32 27.2399 1310.53 26.7129 1310.95 26.3276C1311.38 25.9309 1311.92 25.7326 1312.57 25.7326C1313.21 25.7326 1313.75 25.9309 1314.17 26.3276C1314.6 26.7129 1314.81 27.2399 1314.81 27.9086C1314.81 28.0899 1314.79 28.2713 1314.76 28.4526C1314.74 28.6339 1314.68 28.8549 1314.59 29.1156C1314.5 29.3649 1314.35 29.7049 1314.15 30.1356L1312.96 32.6686H1310.58ZM1315.86 38.5166V26.6166H1319.87V35.4056H1325.24V38.5166H1315.86ZM1327.96 38.5166V33.2976L1328.88 35.6946L1323.47 26.6166H1327.71L1331.36 32.8216H1328.9L1332.59 26.6166H1336.46L1331.09 35.6946L1331.97 33.2976V38.5166H1327.96ZM1342.44 38.7886C1341.48 38.7886 1340.58 38.6356 1339.76 38.3296C1338.94 38.0236 1338.23 37.5929 1337.63 37.0376C1337.03 36.4709 1336.56 35.8079 1336.22 35.0486C1335.89 34.2893 1335.73 33.4619 1335.73 32.5666C1335.73 31.6599 1335.89 30.8326 1336.22 30.0846C1336.56 29.3253 1337.03 28.6679 1337.63 28.1126C1338.23 27.5459 1338.94 27.1096 1339.76 26.8036C1340.58 26.4976 1341.48 26.3446 1342.44 26.3446C1343.42 26.3446 1344.31 26.4976 1345.13 26.8036C1345.94 27.1096 1346.65 27.5459 1347.25 28.1126C1347.85 28.6679 1348.32 29.3253 1348.65 30.0846C1348.99 30.8326 1349.16 31.6599 1349.16 32.5666C1349.16 33.4619 1348.99 34.2893 1348.65 35.0486C1348.32 35.8079 1347.85 36.4709 1347.25 37.0376C1346.65 37.5929 1345.94 38.0236 1345.13 38.3296C1344.31 38.6356 1343.42 38.7886 1342.44 38.7886ZM1342.44 35.5416C1342.82 35.5416 1343.16 35.4736 1343.48 35.3376C1343.81 35.2016 1344.09 35.0089 1344.33 34.7596C1344.58 34.4989 1344.77 34.1873 1344.91 33.8246C1345.04 33.4506 1345.11 33.0313 1345.11 32.5666C1345.11 32.1019 1345.04 31.6883 1344.91 31.3256C1344.77 30.9516 1344.58 30.6399 1344.33 30.3906C1344.09 30.1299 1343.81 29.9316 1343.48 29.7956C1343.16 29.6596 1342.82 29.5916 1342.44 29.5916C1342.07 29.5916 1341.72 29.6596 1341.39 29.7956C1341.07 29.9316 1340.79 30.1299 1340.54 30.3906C1340.3 30.6399 1340.11 30.9516 1339.98 31.3256C1339.84 31.6883 1339.77 32.1019 1339.77 32.5666C1339.77 33.0313 1339.84 33.4506 1339.98 33.8246C1340.11 34.1873 1340.3 34.4989 1340.54 34.7596C1340.79 35.0089 1341.07 35.2016 1341.39 35.3376C1341.72 35.4736 1342.07 35.5416 1342.44 35.5416ZM1350.36 38.5166V26.6166H1353.66L1359.71 33.8586H1358.18V26.6166H1362.09V38.5166H1358.79L1352.74 31.2746H1354.27V38.5166H1350.36Z" fill="white"/>
</svg>
