<svg width="333" height="84" viewBox="0 0 333 84" fill="none" xmlns="http://www.w3.org/2000/svg">
<g clip-path="url(#clip0_149_112)">
<path d="M332.53 38.5606C331.781 37.9468 330.862 37.4732 329.873 37.0462C327.106 35.8387 324.148 34.858 321.261 33.7905C311.53 30.1946 301.349 27.2058 291.339 23.9969C284.295 21.7419 276.972 19.9073 269.909 17.679C263.635 15.7043 257.251 13.9164 250.667 12.4553C238.438 9.74004 225.88 7.90539 213.252 6.25755C198.425 4.32283 183.449 3.04859 168.433 1.99451C159.392 1.36072 150.35 0.693576 141.269 0.353333C129.709 -0.0869815 118.14 -0.0736386 106.571 0.0998187C88.4776 0.366676 70.4644 1.30068 52.5311 2.96186C42.1708 3.92255 31.9503 5.28352 21.9796 7.42505C18.5827 8.15224 15.2858 8.99951 13.0579 11.0276C12.6183 11.4212 12.5084 11.8749 13.3076 12.035C15.4556 12.4687 17.5037 13.0758 19.7916 13.2425C23.4082 13.5027 26.9849 13.2025 30.5116 12.8556C37.9347 12.1351 45.3178 11.2545 52.7609 10.634C60.4937 9.99355 68.2165 9.26637 75.9793 8.75934C82.2534 8.35238 88.5376 8.09219 94.8217 7.82534C106.831 7.32498 118.849 7.20489 130.878 7.26494C131.298 7.26494 131.797 7.15819 132.227 7.47842C131.787 7.50511 131.438 7.53846 131.088 7.55181C123.125 7.83201 115.193 8.35238 107.28 9.00618C95.1315 10.0136 83.1226 11.5213 71.2137 13.376C66.4981 14.1098 61.8125 14.9171 57.1968 15.8911C56.957 15.9044 56.6972 15.8978 56.4675 15.9445C52.4912 16.705 48.5548 17.5523 44.7384 18.5797C34.5479 21.315 24.6471 24.4505 15.7853 28.8604C14.3367 29.5809 12.6582 30.1213 11.5792 31.142C7.59295 33.2568 4.2061 35.7453 1.63849 38.6807C0.139884 40.4019 -0.269735 42.3367 0.209819 44.3181C0.64941 46.1194 2.07808 47.6471 3.53672 49.1348C6.19425 51.8368 9.56111 54.1117 13.2377 56.1932C18.7625 59.3088 24.737 61.9974 31.0711 64.319C32.4698 65.0796 34.1183 65.5666 35.6868 66.127C48.4849 70.7036 61.7026 74.6264 75.6596 77.3817C82.8329 78.796 90.1461 79.8368 97.4992 80.7107C103.414 81.4112 109.378 81.8649 115.343 82.3386C127.541 83.3059 139.79 83.8129 152.068 83.913C163.378 83.9997 174.687 84.0464 186.007 83.7796C196.397 83.5327 206.768 83.1124 217.098 82.3853C228.108 81.6114 238.958 80.2304 249.758 78.6226C260.518 77.0148 271.158 75.1001 281.658 72.8518C290.17 71.0305 298.622 69.0891 306.734 66.5606C309.032 65.8468 311.33 65.1062 313.278 63.9921C315.227 63.2783 316.925 62.351 318.504 61.3102C320.711 60.156 322.869 58.8952 324.138 57.2406C326.516 54.1584 327.155 50.9228 325.137 47.5671C322.41 43.0238 317.864 39.3479 312.849 35.892C310.071 33.9773 306.964 32.2961 303.907 30.5616C304.517 30.655 305.096 30.8017 305.655 30.9619C308.263 31.6957 310.861 32.4362 313.458 33.1768C313.598 33.2368 313.728 33.3035 313.878 33.3502C318.633 34.7913 323.289 36.3657 327.845 38.0669C329.084 38.5273 330.153 39.1611 331.491 39.5146C332.061 39.6614 332.481 39.6214 332.83 39.3345C333.23 39.0076 332.82 38.7741 332.53 38.5406V38.5606ZM23.608 54.8523C20.3111 52.9042 17.3039 50.7827 14.9361 48.2876C14.0869 47.3869 13.3276 46.4396 12.928 45.4122C12.0588 43.2039 12.898 41.1892 14.9861 39.4546C17.5537 37.3264 20.8806 35.7653 24.2375 34.2375C25.6162 33.6104 26.9949 32.99 28.3836 32.3695C28.5335 32.3362 28.7133 32.3228 28.8432 32.2695C34.4579 29.9411 40.4024 28.0398 46.4668 26.2919C55.3485 23.7234 64.5799 21.882 73.9212 20.2742C80.585 19.1267 87.3087 18.1327 94.0824 17.2921C100.397 16.5049 106.721 15.7777 113.075 15.1639C118.6 14.6302 124.154 14.2099 129.719 13.8496C137.622 13.3359 145.545 13.1158 153.467 13.0157C159.681 12.9423 165.906 13.009 172.13 13.0291C180.152 13.0557 188.175 13.1692 196.157 13.6495C205.848 14.2299 215.539 14.797 225.19 15.6843C231.235 16.238 237.289 16.7317 243.254 17.579C253.614 19.0467 263.355 21.6886 272.786 24.8375C275.504 25.7448 278.161 26.7322 280.849 27.6795C284.535 29.2606 288.202 30.8484 291.599 32.7164C298.752 36.6526 305.006 41.0958 309.322 46.6464C310.881 48.6478 311.78 50.696 311.12 52.9976C310.661 54.6188 309.272 55.7662 307.434 56.7403C303.328 58.9085 298.652 60.3695 293.846 61.6905C281.258 65.1396 268.27 67.7415 255.123 70.0298C246.68 71.4975 238.158 72.7517 229.576 73.8258C220.095 75.02 210.514 75.7405 200.903 76.2676C185.447 77.1215 169.962 77.3884 154.456 77.415C145.345 77.4284 136.243 77.2549 127.152 76.8947C120.158 76.6145 113.195 76.0207 106.221 75.527C98.4084 74.9733 90.6756 74.1127 82.9828 73.0586C74.131 71.8377 65.509 70.1032 57.1168 67.8482C50.9026 66.1803 44.8283 64.339 38.9937 62.1508C33.4788 60.0893 28.3436 57.6543 23.598 54.8523H23.608Z" fill="#C5F30F"/>
</g>
<defs>
<clipPath id="clip0_149_112">
<rect width="333" height="84" fill="white"/>
</clipPath>
</defs>
</svg>
