<svg width="441" height="439" viewBox="0 0 441 439" fill="none" xmlns="http://www.w3.org/2000/svg">
<path d="M220.5 0L248.131 91.5042L310.592 19.1497L298.617 113.982L385.107 73.2876L335.595 155.05L431.159 153.053L352.672 207.608L440.787 244.653L346.895 262.568L412.325 332.25L319.264 310.427L350.694 400.697L274.555 342.91L266.552 438.16L220.5 354.4L174.448 438.16L166.445 342.91L90.3056 400.697L121.736 310.427L28.6754 332.25L94.1046 262.568L0.213394 244.653L88.328 207.608L9.84099 153.053L105.405 155.05L55.8934 73.2876L142.383 113.982L130.408 19.1497L192.869 91.5042L220.5 0Z" fill="#F46343"/>
</svg>
