<svg width="32" height="31" viewBox="0 0 32 31" fill="none" xmlns="http://www.w3.org/2000/svg">
<path d="M14.4622 0.080884L16.8378 6.33363L20.8448 0.977891L20.4717 7.65628L26.3107 4.39336L23.2535 10.3426L29.9148 9.73672L24.7022 13.9282L31.034 16.0841L24.5672 17.793L29.4748 22.3379L22.872 21.2688L25.5067 27.4168L19.9096 23.7545L19.8158 30.4427L16.1922 24.8205L13.3863 30.8923L12.3627 24.2823L7.32972 28.6879L9.08315 22.233L2.69339 24.2106L6.92066 19.027L0.278948 18.2347L6.24913 15.2186L0.503885 11.7933L7.18468 11.4663L3.3293 6.00037L9.56554 8.41891L8.26666 1.85744L12.98 6.60339L14.4622 0.080884Z" fill="#303030"/>
</svg>
