<svg width="1590" height="153" viewBox="0 0 1590 153" fill="none" xmlns="http://www.w3.org/2000/svg">
<rect y="50" width="43" height="54" fill="#8F3DF5"/>
<rect x="119" y="50" width="43" height="54" fill="#8F3DF5"/>
<rect x="60" y="50" width="43" height="54" fill="#8F3DF5"/>
<path d="M103 51C103 44.3026 101.668 37.6708 99.0798 31.4831C96.4917 25.2955 92.6982 19.6733 87.916 14.9376C83.1338 10.2018 77.4565 6.44513 71.2082 3.88214C64.9599 1.31915 58.2631 -2.92753e-07 51.5 0C44.7369 2.92753e-07 38.0401 1.31915 31.7918 3.88214C25.5435 6.44514 19.8662 10.2018 15.084 14.9376C10.3018 19.6733 6.50832 25.2955 3.9202 31.4831C1.33209 37.6708 -5.91247e-07 44.3026 0 51L42.9978 51C42.9978 49.8943 43.2177 48.7995 43.645 47.778C44.0723 46.7564 44.6986 45.8283 45.4881 45.0464C46.2776 44.2646 47.2148 43.6444 48.2464 43.2213C49.2779 42.7982 50.3835 42.5804 51.5 42.5804C52.6165 42.5804 53.7221 42.7982 54.7536 43.2213C55.7852 43.6444 56.7224 44.2646 57.5119 45.0464C58.3014 45.8283 58.9277 46.7564 59.355 47.778C59.7823 48.7995 60 49.8943 60 51H103Z" fill="#8F3DF5"/>
<path d="M60 103C60 116.513 65.3678 128.421 74.9226 137.976C84.4774 147.531 97.4364 152.898 110.949 152.898C124.461 152.898 137.421 147.531 146.975 137.976C156.53 128.421 162 116.513 162 103L119 103C119 105.111 118.068 106.084 116.576 107.577C115.084 109.069 113.06 109.907 110.949 109.907C108.838 109.907 106.814 109.069 105.322 107.577C103.829 106.084 103 105.111 103 103L60 103Z" fill="#8F3DF5"/>
<rect x="119" y="50" width="43" height="54" fill="#8F3DF5"/>
<rect x="238" y="50" width="43" height="54" fill="#8F3DF5"/>
<rect x="179" y="50" width="43" height="54" fill="#8F3DF5"/>
<path d="M222 51C222 44.3026 220.668 37.6708 218.08 31.4831C215.492 25.2955 211.698 19.6733 206.916 14.9376C202.134 10.2018 196.456 6.44513 190.208 3.88214C183.96 1.31915 177.263 -2.92753e-07 170.5 0C163.737 2.92753e-07 157.04 1.31915 150.792 3.88214C144.544 6.44514 138.866 10.2018 134.084 14.9376C129.302 19.6733 125.508 25.2955 122.92 31.4831C120.332 37.6708 119 44.3026 119 51L161.998 51C161.998 49.8943 162.218 48.7995 162.645 47.778C163.072 46.7564 163.699 45.8283 164.488 45.0464C165.278 44.2646 166.215 43.6444 167.246 43.2213C168.278 42.7982 169.383 42.5804 170.5 42.5804C171.617 42.5804 172.722 42.7982 173.754 43.2213C174.785 43.6444 175.722 44.2646 176.512 45.0464C177.301 45.8283 177.928 46.7564 178.355 47.778C178.782 48.7995 179 49.8943 179 51H222Z" fill="#8F3DF5"/>
<path d="M179 103C179 116.513 184.368 128.421 193.923 137.976C203.477 147.531 216.436 152.898 229.949 152.898C243.461 152.898 256.421 147.531 265.975 137.976C275.53 128.421 281 116.513 281 103L238 103C238 105.111 237.068 106.084 235.576 107.577C234.084 109.069 232.06 109.907 229.949 109.907C227.838 109.907 225.814 109.069 224.322 107.577C222.829 106.084 222 105.111 222 103L179 103Z" fill="#8F3DF5"/>
<rect x="238" y="50" width="43" height="54" fill="#8F3DF5"/>
<rect x="357" y="50" width="43" height="54" fill="#8F3DF5"/>
<rect x="298" y="50" width="43" height="54" fill="#8F3DF5"/>
<path d="M341 51C341 44.3026 339.668 37.6708 337.08 31.4831C334.492 25.2955 330.698 19.6733 325.916 14.9376C321.134 10.2018 315.456 6.44513 309.208 3.88214C302.96 1.31915 296.263 -2.92753e-07 289.5 0C282.737 2.92753e-07 276.04 1.31915 269.792 3.88214C263.544 6.44514 257.866 10.2018 253.084 14.9376C248.302 19.6733 244.508 25.2955 241.92 31.4831C239.332 37.6708 238 44.3026 238 51L280.998 51C280.998 49.8943 281.218 48.7995 281.645 47.778C282.072 46.7564 282.699 45.8283 283.488 45.0464C284.278 44.2646 285.215 43.6444 286.246 43.2213C287.278 42.7982 288.383 42.5804 289.5 42.5804C290.617 42.5804 291.722 42.7982 292.754 43.2213C293.785 43.6444 294.722 44.2646 295.512 45.0464C296.301 45.8283 296.928 46.7564 297.355 47.778C297.782 48.7995 298 49.8943 298 51H341Z" fill="#8F3DF5"/>
<path d="M298 103C298 116.513 303.368 128.421 312.923 137.976C322.477 147.531 335.436 152.898 348.949 152.898C362.461 152.898 375.421 147.531 384.975 137.976C394.53 128.421 400 116.513 400 103L357 103C357 105.111 356.068 106.084 354.576 107.577C353.084 109.069 351.06 109.907 348.949 109.907C346.838 109.907 344.814 109.069 343.322 107.577C341.829 106.084 341 105.111 341 103L298 103Z" fill="#8F3DF5"/>
<rect x="357" y="50" width="43" height="54" fill="#8F3DF5"/>
<rect x="476" y="50" width="43" height="54" fill="#8F3DF5"/>
<rect x="417" y="50" width="43" height="54" fill="#8F3DF5"/>
<path d="M460 51C460 44.3026 458.668 37.6708 456.08 31.4831C453.492 25.2955 449.698 19.6733 444.916 14.9376C440.134 10.2018 434.456 6.44513 428.208 3.88214C421.96 1.31915 415.263 -2.92753e-07 408.5 0C401.737 2.92753e-07 395.04 1.31915 388.792 3.88214C382.544 6.44514 376.866 10.2018 372.084 14.9376C367.302 19.6733 363.508 25.2955 360.92 31.4831C358.332 37.6708 357 44.3026 357 51L399.998 51C399.998 49.8943 400.218 48.7995 400.645 47.778C401.072 46.7564 401.699 45.8283 402.488 45.0464C403.278 44.2646 404.215 43.6444 405.246 43.2213C406.278 42.7982 407.383 42.5804 408.5 42.5804C409.617 42.5804 410.722 42.7982 411.754 43.2213C412.785 43.6444 413.722 44.2646 414.512 45.0464C415.301 45.8283 415.928 46.7564 416.355 47.778C416.782 48.7995 417 49.8943 417 51H460Z" fill="#8F3DF5"/>
<path d="M417 103C417 116.513 422.368 128.421 431.923 137.976C441.477 147.531 454.436 152.898 467.949 152.898C481.461 152.898 494.421 147.531 503.975 137.976C513.53 128.421 519 116.513 519 103L476 103C476 105.111 475.068 106.084 473.576 107.577C472.084 109.069 470.06 109.907 467.949 109.907C465.838 109.907 463.814 109.069 462.322 107.577C460.829 106.084 460 105.111 460 103L417 103Z" fill="#8F3DF5"/>
<rect x="476" y="50" width="43" height="54" fill="#8F3DF5"/>
<rect x="595" y="50" width="43" height="54" fill="#8F3DF5"/>
<rect x="536" y="50" width="43" height="54" fill="#8F3DF5"/>
<path d="M579 51C579 44.3026 577.668 37.6708 575.08 31.4831C572.492 25.2955 568.698 19.6733 563.916 14.9376C559.134 10.2018 553.456 6.44513 547.208 3.88214C540.96 1.31915 534.263 -2.92753e-07 527.5 0C520.737 2.92753e-07 514.04 1.31915 507.792 3.88214C501.544 6.44514 495.866 10.2018 491.084 14.9376C486.302 19.6733 482.508 25.2955 479.92 31.4831C477.332 37.6708 476 44.3026 476 51L518.998 51C518.998 49.8943 519.218 48.7995 519.645 47.778C520.072 46.7564 520.699 45.8283 521.488 45.0464C522.278 44.2646 523.215 43.6444 524.246 43.2213C525.278 42.7982 526.383 42.5804 527.5 42.5804C528.617 42.5804 529.722 42.7982 530.754 43.2213C531.785 43.6444 532.722 44.2646 533.512 45.0464C534.301 45.8283 534.928 46.7564 535.355 47.778C535.782 48.7995 536 49.8943 536 51H579Z" fill="#8F3DF5"/>
<path d="M536 103C536 116.513 541.368 128.421 550.923 137.976C560.477 147.531 573.436 152.898 586.949 152.898C600.461 152.898 613.421 147.531 622.975 137.976C632.53 128.421 638 116.513 638 103L595 103C595 105.111 594.068 106.084 592.576 107.577C591.084 109.069 589.06 109.907 586.949 109.907C584.838 109.907 582.814 109.069 581.322 107.577C579.829 106.084 579 105.111 579 103L536 103Z" fill="#8F3DF5"/>
<rect x="595" y="50" width="43" height="54" fill="#8F3DF5"/>
<rect x="714" y="50" width="43" height="54" fill="#8F3DF5"/>
<rect x="655" y="50" width="43" height="54" fill="#8F3DF5"/>
<path d="M698 51C698 44.3026 696.668 37.6708 694.08 31.4831C691.492 25.2955 687.698 19.6733 682.916 14.9376C678.134 10.2018 672.456 6.44513 666.208 3.88214C659.96 1.31915 653.263 -2.92753e-07 646.5 0C639.737 2.92753e-07 633.04 1.31915 626.792 3.88214C620.544 6.44514 614.866 10.2018 610.084 14.9376C605.302 19.6733 601.508 25.2955 598.92 31.4831C596.332 37.6708 595 44.3026 595 51L637.998 51C637.998 49.8943 638.218 48.7995 638.645 47.778C639.072 46.7564 639.699 45.8283 640.488 45.0464C641.278 44.2646 642.215 43.6444 643.246 43.2213C644.278 42.7982 645.383 42.5804 646.5 42.5804C647.617 42.5804 648.722 42.7982 649.754 43.2213C650.785 43.6444 651.722 44.2646 652.512 45.0464C653.301 45.8283 653.928 46.7564 654.355 47.778C654.782 48.7995 655 49.8943 655 51H698Z" fill="#8F3DF5"/>
<path d="M655 103C655 116.513 660.368 128.421 669.923 137.976C679.477 147.531 692.436 152.898 705.949 152.898C719.461 152.898 732.421 147.531 741.975 137.976C751.53 128.421 757 116.513 757 103L714 103C714 105.111 713.068 106.084 711.576 107.577C710.084 109.069 708.06 109.907 705.949 109.907C703.838 109.907 701.814 109.069 700.322 107.577C698.829 106.084 698 105.111 698 103L655 103Z" fill="#8F3DF5"/>
<rect x="714" y="50" width="43" height="54" fill="#8F3DF5"/>
<rect x="833" y="50" width="43" height="54" fill="#8F3DF5"/>
<rect x="774" y="50" width="43" height="54" fill="#8F3DF5"/>
<path d="M817 51C817 44.3026 815.668 37.6708 813.08 31.4831C810.492 25.2955 806.698 19.6733 801.916 14.9376C797.134 10.2018 791.456 6.44513 785.208 3.88214C778.96 1.31915 772.263 -2.92753e-07 765.5 0C758.737 2.92753e-07 752.04 1.31915 745.792 3.88214C739.544 6.44514 733.866 10.2018 729.084 14.9376C724.302 19.6733 720.508 25.2955 717.92 31.4831C715.332 37.6708 714 44.3026 714 51L756.998 51C756.998 49.8943 757.218 48.7995 757.645 47.778C758.072 46.7564 758.699 45.8283 759.488 45.0464C760.278 44.2646 761.215 43.6444 762.246 43.2213C763.278 42.7982 764.383 42.5804 765.5 42.5804C766.617 42.5804 767.722 42.7982 768.754 43.2213C769.785 43.6444 770.722 44.2646 771.512 45.0464C772.301 45.8283 772.928 46.7564 773.355 47.778C773.782 48.7995 774 49.8943 774 51H817Z" fill="#8F3DF5"/>
<path d="M774 103C774 116.513 779.368 128.421 788.923 137.976C798.477 147.531 811.436 152.898 824.949 152.898C838.461 152.898 851.421 147.531 860.975 137.976C870.53 128.421 876 116.513 876 103L833 103C833 105.111 832.068 106.084 830.576 107.577C829.084 109.069 827.06 109.907 824.949 109.907C822.838 109.907 820.814 109.069 819.322 107.577C817.829 106.084 817 105.111 817 103L774 103Z" fill="#8F3DF5"/>
<rect x="833" y="50" width="43" height="54" fill="#8F3DF5"/>
<rect x="952" y="50" width="43" height="54" fill="#8F3DF5"/>
<rect x="893" y="50" width="43" height="54" fill="#8F3DF5"/>
<path d="M936 51C936 44.3026 934.668 37.6708 932.08 31.4831C929.492 25.2955 925.698 19.6733 920.916 14.9376C916.134 10.2018 910.456 6.44513 904.208 3.88214C897.96 1.31915 891.263 -2.92753e-07 884.5 0C877.737 2.92753e-07 871.04 1.31915 864.792 3.88214C858.544 6.44514 852.866 10.2018 848.084 14.9376C843.302 19.6733 839.508 25.2955 836.92 31.4831C834.332 37.6708 833 44.3026 833 51L875.998 51C875.998 49.8943 876.218 48.7995 876.645 47.778C877.072 46.7564 877.699 45.8283 878.488 45.0464C879.278 44.2646 880.215 43.6444 881.246 43.2213C882.278 42.7982 883.383 42.5804 884.5 42.5804C885.617 42.5804 886.722 42.7982 887.754 43.2213C888.785 43.6444 889.722 44.2646 890.512 45.0464C891.301 45.8283 891.928 46.7564 892.355 47.778C892.782 48.7995 893 49.8943 893 51H936Z" fill="#8F3DF5"/>
<path d="M893 103C893 116.513 898.368 128.421 907.923 137.976C917.477 147.531 930.436 152.898 943.949 152.898C957.461 152.898 970.421 147.531 979.975 137.976C989.53 128.421 995 116.513 995 103L952 103C952 105.111 951.068 106.084 949.576 107.577C948.084 109.069 946.06 109.907 943.949 109.907C941.838 109.907 939.814 109.069 938.322 107.577C936.829 106.084 936 105.111 936 103L893 103Z" fill="#8F3DF5"/>
<rect x="952" y="50" width="43" height="54" fill="#8F3DF5"/>
<rect x="1071" y="50" width="43" height="54" fill="#8F3DF5"/>
<rect x="1012" y="50" width="43" height="54" fill="#8F3DF5"/>
<path d="M1055 51C1055 44.3026 1053.67 37.6708 1051.08 31.4831C1048.49 25.2955 1044.7 19.6733 1039.92 14.9376C1035.13 10.2018 1029.46 6.44513 1023.21 3.88214C1016.96 1.31915 1010.26 -2.92753e-07 1003.5 0C996.737 2.92753e-07 990.04 1.31915 983.792 3.88214C977.544 6.44514 971.866 10.2018 967.084 14.9376C962.302 19.6733 958.508 25.2955 955.92 31.4831C953.332 37.6708 952 44.3026 952 51L994.998 51C994.998 49.8943 995.218 48.7995 995.645 47.778C996.072 46.7564 996.699 45.8283 997.488 45.0464C998.278 44.2646 999.215 43.6444 1000.25 43.2213C1001.28 42.7982 1002.38 42.5804 1003.5 42.5804C1004.62 42.5804 1005.72 42.7982 1006.75 43.2213C1007.79 43.6444 1008.72 44.2646 1009.51 45.0464C1010.3 45.8283 1010.93 46.7564 1011.35 47.778C1011.78 48.7995 1012 49.8943 1012 51H1055Z" fill="#8F3DF5"/>
<path d="M1012 103C1012 116.513 1017.37 128.421 1026.92 137.976C1036.48 147.531 1049.44 152.898 1062.95 152.898C1076.46 152.898 1089.42 147.531 1098.98 137.976C1108.53 128.421 1114 116.513 1114 103L1071 103C1071 105.111 1070.07 106.084 1068.58 107.577C1067.08 109.069 1065.06 109.907 1062.95 109.907C1060.84 109.907 1058.81 109.069 1057.32 107.577C1055.83 106.084 1055 105.111 1055 103L1012 103Z" fill="#8F3DF5"/>
<rect x="1071" y="50" width="43" height="54" fill="#8F3DF5"/>
<rect x="1190" y="50" width="43" height="54" fill="#8F3DF5"/>
<rect x="1131" y="50" width="43" height="54" fill="#8F3DF5"/>
<path d="M1174 51C1174 44.3026 1172.67 37.6708 1170.08 31.4831C1167.49 25.2955 1163.7 19.6733 1158.92 14.9376C1154.13 10.2018 1148.46 6.44513 1142.21 3.88214C1135.96 1.31915 1129.26 -2.92753e-07 1122.5 0C1115.74 2.92753e-07 1109.04 1.31915 1102.79 3.88214C1096.54 6.44514 1090.87 10.2018 1086.08 14.9376C1081.3 19.6733 1077.51 25.2955 1074.92 31.4831C1072.33 37.6708 1071 44.3026 1071 51L1114 51C1114 49.8943 1114.22 48.7995 1114.65 47.778C1115.07 46.7564 1115.7 45.8283 1116.49 45.0464C1117.28 44.2646 1118.21 43.6444 1119.25 43.2213C1120.28 42.7982 1121.38 42.5804 1122.5 42.5804C1123.62 42.5804 1124.72 42.7982 1125.75 43.2213C1126.79 43.6444 1127.72 44.2646 1128.51 45.0464C1129.3 45.8283 1129.93 46.7564 1130.35 47.778C1130.78 48.7995 1131 49.8943 1131 51H1174Z" fill="#8F3DF5"/>
<path d="M1131 103C1131 116.513 1136.37 128.421 1145.92 137.976C1155.48 147.531 1168.44 152.898 1181.95 152.898C1195.46 152.898 1208.42 147.531 1217.98 137.976C1227.53 128.421 1233 116.513 1233 103L1190 103C1190 105.111 1189.07 106.084 1187.58 107.577C1186.08 109.069 1184.06 109.907 1181.95 109.907C1179.84 109.907 1177.81 109.069 1176.32 107.577C1174.83 106.084 1174 105.111 1174 103L1131 103Z" fill="#8F3DF5"/>
<rect x="1190" y="50" width="43" height="54" fill="#8F3DF5"/>
<rect x="1309" y="50" width="43" height="54" fill="#8F3DF5"/>
<rect x="1250" y="50" width="43" height="54" fill="#8F3DF5"/>
<path d="M1293 51C1293 44.3026 1291.67 37.6708 1289.08 31.4831C1286.49 25.2955 1282.7 19.6733 1277.92 14.9376C1273.13 10.2018 1267.46 6.44513 1261.21 3.88214C1254.96 1.31915 1248.26 -2.92753e-07 1241.5 0C1234.74 2.92753e-07 1228.04 1.31915 1221.79 3.88214C1215.54 6.44514 1209.87 10.2018 1205.08 14.9376C1200.3 19.6733 1196.51 25.2955 1193.92 31.4831C1191.33 37.6708 1190 44.3026 1190 51L1233 51C1233 49.8943 1233.22 48.7995 1233.65 47.778C1234.07 46.7564 1234.7 45.8283 1235.49 45.0464C1236.28 44.2646 1237.21 43.6444 1238.25 43.2213C1239.28 42.7982 1240.38 42.5804 1241.5 42.5804C1242.62 42.5804 1243.72 42.7982 1244.75 43.2213C1245.79 43.6444 1246.72 44.2646 1247.51 45.0464C1248.3 45.8283 1248.93 46.7564 1249.35 47.778C1249.78 48.7995 1250 49.8943 1250 51H1293Z" fill="#8F3DF5"/>
<path d="M1250 103C1250 116.513 1255.37 128.421 1264.92 137.976C1274.48 147.531 1287.44 152.898 1300.95 152.898C1314.46 152.898 1327.42 147.531 1336.98 137.976C1346.53 128.421 1352 116.513 1352 103L1309 103C1309 105.111 1308.07 106.084 1306.58 107.577C1305.08 109.069 1303.06 109.907 1300.95 109.907C1298.84 109.907 1296.81 109.069 1295.32 107.577C1293.83 106.084 1293 105.111 1293 103L1250 103Z" fill="#8F3DF5"/>
<rect x="1309" y="50" width="43" height="54" fill="#8F3DF5"/>
<rect x="1428" y="50" width="43" height="54" fill="#8F3DF5"/>
<rect x="1369" y="50" width="43" height="54" fill="#8F3DF5"/>
<path d="M1412 51C1412 44.3026 1410.67 37.6708 1408.08 31.4831C1405.49 25.2955 1401.7 19.6733 1396.92 14.9376C1392.13 10.2018 1386.46 6.44513 1380.21 3.88214C1373.96 1.31915 1367.26 -2.92753e-07 1360.5 0C1353.74 2.92753e-07 1347.04 1.31915 1340.79 3.88214C1334.54 6.44514 1328.87 10.2018 1324.08 14.9376C1319.3 19.6733 1315.51 25.2955 1312.92 31.4831C1310.33 37.6708 1309 44.3026 1309 51L1352 51C1352 49.8943 1352.22 48.7995 1352.65 47.778C1353.07 46.7564 1353.7 45.8283 1354.49 45.0464C1355.28 44.2646 1356.21 43.6444 1357.25 43.2213C1358.28 42.7982 1359.38 42.5804 1360.5 42.5804C1361.62 42.5804 1362.72 42.7982 1363.75 43.2213C1364.79 43.6444 1365.72 44.2646 1366.51 45.0464C1367.3 45.8283 1367.93 46.7564 1368.35 47.778C1368.78 48.7995 1369 49.8943 1369 51H1412Z" fill="#8F3DF5"/>
<path d="M1369 103C1369 116.513 1374.37 128.421 1383.92 137.976C1393.48 147.531 1406.44 152.898 1419.95 152.898C1433.46 152.898 1446.42 147.531 1455.98 137.976C1465.53 128.421 1471 116.513 1471 103L1428 103C1428 105.111 1427.07 106.084 1425.58 107.577C1424.08 109.069 1422.06 109.907 1419.95 109.907C1417.84 109.907 1415.81 109.069 1414.32 107.577C1412.83 106.084 1412 105.111 1412 103L1369 103Z" fill="#8F3DF5"/>
<rect x="1428" y="50" width="43" height="54" fill="#8F3DF5"/>
<rect x="1547" y="50" width="43" height="54" fill="#8F3DF5"/>
<rect x="1488" y="50" width="43" height="54" fill="#8F3DF5"/>
<path d="M1531 51C1531 44.3026 1529.67 37.6708 1527.08 31.4831C1524.49 25.2955 1520.7 19.6733 1515.92 14.9376C1511.13 10.2018 1505.46 6.44513 1499.21 3.88214C1492.96 1.31915 1486.26 -2.92753e-07 1479.5 0C1472.74 2.92753e-07 1466.04 1.31915 1459.79 3.88214C1453.54 6.44514 1447.87 10.2018 1443.08 14.9376C1438.3 19.6733 1434.51 25.2955 1431.92 31.4831C1429.33 37.6708 1428 44.3026 1428 51L1471 51C1471 49.8943 1471.22 48.7995 1471.65 47.778C1472.07 46.7564 1472.7 45.8283 1473.49 45.0464C1474.28 44.2646 1475.21 43.6444 1476.25 43.2213C1477.28 42.7982 1478.38 42.5804 1479.5 42.5804C1480.62 42.5804 1481.72 42.7982 1482.75 43.2213C1483.79 43.6444 1484.72 44.2646 1485.51 45.0464C1486.3 45.8283 1486.93 46.7564 1487.35 47.778C1487.78 48.7995 1488 49.8943 1488 51H1531Z" fill="#8F3DF5"/>
<path d="M1488 103C1488 116.513 1493.37 128.421 1502.92 137.976C1512.48 147.531 1525.44 152.898 1538.95 152.898C1552.46 152.898 1565.42 147.531 1574.98 137.976C1584.53 128.421 1590 116.513 1590 103L1547 103C1547 105.111 1546.07 106.084 1544.58 107.577C1543.08 109.069 1541.06 109.907 1538.95 109.907C1536.84 109.907 1534.81 109.069 1533.32 107.577C1531.83 106.084 1531 105.111 1531 103L1488 103Z" fill="#8F3DF5"/>
</svg>
