<svg width="886" height="302" viewBox="0 0 886 302" fill="none" xmlns="http://www.w3.org/2000/svg">
<g clip-path="url(#clip0_149_109)">
<path d="M0 301.567H885.624V239.569L873.184 228.811V239.569H867.513V207.88L851.011 199.391V221.492C849.328 220.578 847.535 219.882 845.706 219.26V181.717H840.144C838.461 181.717 837.839 179.668 837.839 179.668H834.583L830.778 185.156V187.059H829.644V176.228H827.96V179.741H826.46V177.289H822.253V178.423H820.204V176.594H818.777V178.643L817.496 179.338V184.168H815.813V168.434H814.532V165.433H815.484V161.371L811.825 153.504H809.593L806.264 161.371V165.653H807.764V168.434H805.788V181.095H804.434V156.285L805.312 154.785V151.858H792.836V154.785L793.933 155.992V168.324H792.726V165.543L787.896 162.908V149.552L788.921 148.93V143.99H776.993V149.479L778.347 149.955V177.911H776.224V160.823L772.566 158.371L773.773 156.541V152.663H765.248C765.248 147.576 765.943 146.552 765.943 146.552V145.381H763.638V152.846H762.028V156.102C757.564 158.81 755.369 159.103 755.369 159.103C755.369 150.138 757.418 146.478 757.418 146.478V144.722H751.6V142.819L752.954 141.612V140.258L751.6 139.306L751.271 123.499H749.99L749.661 144.722H745.856V204.916H744.1C744.1 201.403 742.453 198.952 742.453 198.952V193.756L740.112 196.097V191.011L736.672 194.451V186.035H733.965L730.379 182.449L726.391 186.437H721.086L719.988 194.304H717.134C714.609 194.304 713.182 195.695 710.877 196.793C703.743 197.012 696.571 197.232 689.437 197.525C683.985 197.744 678.533 198 673.045 198.256C669.349 196.097 665.8 193.609 662.324 191.377C654.385 186.254 645.933 181.387 636.42 180.07C626.724 178.753 618.382 182.595 610.04 187.059C602.1 191.304 594.489 196.171 586.952 201.111V193.463H581.537V188.852H577.732V175.167H572.719V190.206H570.817V195.366H569.06V188.194H566.902V186.84H563.243V147.393H558.633V145.344H540.741V147.393H538.582V145.234H533.716V147.942H531.96V197.012H529.508V53.388H518.166L513.592 51.0461V1.13436L509.824 0V49.5092L485.456 37.9095V68.3542L481.029 72.7818V207.148H477.26V187.425C477.26 183.876 478.87 184.059 478.87 184.059V181.717C477.333 180.399 477.553 176.008 477.553 176.008H476.126V181.278H474.699V145.088C474.699 144.759 474.443 144.466 474.077 144.466C473.711 144.466 473.455 144.722 473.455 145.088V147.21H472.028V145.271C472.028 144.942 471.772 144.649 471.406 144.649C471.077 144.649 470.82 144.905 470.784 145.234C470.637 148.93 469.174 147.906 469.174 147.906V149.516H464.674V148.198H462.844V149.516H459.076V141.758C459.076 141.429 458.819 141.173 458.49 141.173C458.161 141.173 457.905 141.429 457.905 141.758V145.82C457.905 148.93 456.953 152.48 456.953 152.48V161.847H454.904V157.639L447.989 144.356V140.916C447.989 140.441 447.587 140.038 447.111 140.038C446.635 140.038 446.233 140.441 446.233 140.916V144.649L440.269 157.127V162.542H438.659V153.468L437.305 152.114V147.174C437.305 146.771 436.976 146.442 436.574 146.442C436.171 146.442 435.842 146.771 435.842 147.174V150.101H434.342V84.7475H432.293L411.84 64.2924L391.497 84.6377H389.448V191.34H386.338V186.986H384.838V185.778C382.679 185.778 382.13 184.827 382.13 184.827H379.276V187.535H377.227V206.38H375.325V141.465H370.166V125.694L366.726 123.462V121.632H356.664V120.096C356.664 120.096 362.958 119.4 364.897 117.058C366.836 114.716 362.226 117.973 357.469 117.973C352.164 117.973 339.87 113.692 342.322 117.058C344.773 120.425 352.274 120.608 352.274 120.608V122.145H346.786V124.084H338.187V197.232H336.138V188.523H333.943L332.077 186.657H321.832L320.735 188.962H319.6V175.13H317.844V180.875H316.344V167.739H314.99V174.215C312.356 164.958 312.612 147.869 312.612 147.869H304.672V152.846C304.672 164.226 301.709 174.215 301.709 174.215V167.812H300.757V181.753H299.44V175.13H298.123V196.28H296.586V197.195H293.549V179.814H295.598V177.984H293.549V176.264H289.598C289.598 173.52 286.232 173.227 286.232 173.227V169.678H284.183V173.337H274.048V169.971H271.706V173.923C268.559 173.923 268.962 177.07 268.962 177.07H263.071V179.411H265.523V194.451H264.169C264.169 194.451 266.51 166.275 241.886 166.275C217.262 166.275 217.994 192.731 217.994 192.731H215.762V194.78H217.482V196.61H213.603V189.987L210.859 182.266H205.078L201.31 188.669H197.431V184.388H199.554V182.778H197.614V180.326H191.394V178.497L188.138 175.24V171.873C188.138 171.215 187.589 170.666 186.93 170.666H186.784C186.126 170.666 185.577 171.215 185.577 171.873V179.521L180.381 172.203L175.295 178.826V171.361C175.295 170.702 174.747 170.154 174.088 170.154C173.429 170.154 172.881 170.702 172.881 171.361V175.825L169.588 179.119V180.839H163.697V190.389H162.16V161.701C162.16 161.262 161.794 160.896 161.355 160.896H161.319C160.879 160.896 160.514 161.262 160.514 161.701V164.189L154.55 158.225V152.736C154.55 152.297 154.184 151.931 153.745 151.931C153.306 151.931 152.94 152.297 152.94 152.736V158.334L146.939 164.628V161.884C146.939 161.445 146.573 161.079 146.134 161.079H146.025C145.586 161.079 145.22 161.445 145.22 161.884V189.95L139.512 193.207V200.525H136.475V196.244H134.938V192.694L131.975 189.73V196.244H130.548V190.938H128.938V196.244H126.706V194.012H123.852V196.244H115.729L125.828 187.388C127.511 185.925 127.584 183.327 126.011 181.753C124.657 180.399 122.498 180.253 120.961 181.387L102.484 195.256C102.484 195.256 100.655 193.426 95.9716 190.389C91.2882 187.352 88.6539 191.743 88.6539 191.743C64.7982 176.813 52.8703 185.778 52.8703 185.778V206.233L36.5153 220.321V253.73H33.4784V242.46L16.9771 250.949V268.221L13.1718 271.477V261.927L0 268.806M220.702 217.906H217.262V211.905C217.262 210.954 218.031 210.185 218.982 210.185C219.933 210.185 220.702 210.954 220.702 211.905V217.906ZM220.702 206.197H217.262V200.196C217.262 199.244 218.031 198.476 218.982 198.476C219.933 198.476 220.702 199.244 220.702 200.196V206.197ZM226.19 216.333H222.751V210.332C222.751 209.38 223.519 208.612 224.47 208.612C225.422 208.612 226.19 209.38 226.19 210.332V216.333ZM226.19 204.623H222.751V198.622C222.751 197.671 223.519 196.902 224.47 196.902C225.422 196.902 226.19 197.671 226.19 198.622V204.623ZM231.751 216.333H228.312V210.332C228.312 209.38 229.08 208.612 230.032 208.612C230.983 208.612 231.751 209.38 231.751 210.332V216.333ZM231.751 204.623H228.312V198.622C228.312 197.671 229.08 196.902 230.032 196.902C230.983 196.902 231.751 197.671 231.751 198.622V204.623ZM237.276 216.333H233.837V210.332C233.837 209.38 234.605 208.612 235.557 208.612C236.508 208.612 237.276 209.38 237.276 210.332V216.333ZM237.276 204.623H233.837V198.622C233.837 197.671 234.605 196.902 235.557 196.902C236.508 196.902 237.276 197.671 237.276 198.622V204.623ZM242.838 216.333H239.398V210.332C239.398 209.38 240.167 208.612 241.118 208.612C242.069 208.612 242.838 209.38 242.838 210.332V216.333ZM242.838 204.623H239.398V198.622C239.398 197.671 240.167 196.902 241.118 196.902C242.069 196.902 242.838 197.671 242.838 198.622V204.623ZM248.399 216.333H244.96V210.332C244.96 209.38 245.728 208.612 246.679 208.612C247.631 208.612 248.399 209.38 248.399 210.332V216.333ZM248.399 204.623H244.96V198.622C244.96 197.671 245.728 196.902 246.679 196.902C247.631 196.902 248.399 197.671 248.399 198.622V204.623ZM253.961 216.333H250.521V210.332C250.521 209.38 251.29 208.612 252.241 208.612C253.192 208.612 253.961 209.38 253.961 210.332V216.333ZM253.961 204.623H250.521V198.622C250.521 197.671 251.29 196.902 252.241 196.902C253.192 196.902 253.961 197.671 253.961 198.622V204.623ZM259.522 216.333H256.083V210.332C256.083 209.38 256.851 208.612 257.802 208.612C258.754 208.612 259.522 209.38 259.522 210.332V216.333ZM259.522 204.623H256.083V198.622C256.083 197.671 256.851 196.902 257.802 196.902C258.754 196.902 259.522 197.671 259.522 198.622V204.623ZM265.01 217.906H261.571V211.905C261.571 210.954 262.339 210.185 263.291 210.185C264.242 210.185 265.01 210.954 265.01 211.905V217.906ZM265.01 206.197H261.571V200.196C261.571 199.244 262.339 198.476 263.291 198.476C264.242 198.476 265.01 199.244 265.01 200.196V206.197ZM434.488 161.774L433.976 161.481C432.768 160.823 431.305 160.823 430.097 161.481L429.585 161.774V156.578C429.585 155.224 430.683 154.126 432.037 154.126C433.39 154.126 434.488 155.224 434.488 156.578V161.774ZM444.586 153.907C444.586 152.406 445.794 151.199 447.294 151.199C448.794 151.199 450.002 152.406 450.002 153.907V159.615L449.453 159.286C448.136 158.554 446.526 158.554 445.172 159.286L444.623 159.615V153.907H444.586ZM447.257 180.033C443.16 180.033 439.83 176.704 439.83 172.605C439.83 168.507 443.16 165.177 447.257 165.177C451.355 165.177 454.685 168.507 454.685 172.605C454.685 176.704 451.355 180.033 447.257 180.033ZM464.93 161.774L464.417 161.481C463.21 160.823 461.746 160.823 460.539 161.481L460.027 161.774V156.578C460.027 155.224 461.124 154.126 462.478 154.126C463.832 154.126 464.93 155.224 464.93 156.578V161.774ZM713.768 199.464C714.244 199.208 714.719 198.952 715.195 198.695V201.367C715.195 201.403 715.195 201.44 715.231 201.476H713.768V199.464ZM711.243 201.111C711.829 200.708 712.377 200.306 712.963 199.94V201.44H711.243V201.111ZM704.84 197.854C705.755 197.817 706.67 197.781 707.584 197.744V198.513C706.67 198.988 705.755 199.464 704.84 199.94V197.854ZM702.169 197.927C702.791 197.89 703.377 197.89 703.999 197.854V200.342C703.377 200.635 702.791 200.964 702.169 201.257V197.927ZM699.754 198.037C700.303 198 700.852 198 701.364 197.964V201.513H699.754V198.037ZM696.901 198.147C697.596 198.11 698.254 198.11 698.95 198.073V201.55C698.254 201.55 697.596 201.55 696.901 201.586V198.147ZM694.047 198.256C694.742 198.22 695.4 198.22 696.096 198.183V201.586C695.4 201.586 694.742 201.623 694.047 201.623V198.256ZM691.193 198.366C691.888 198.33 692.547 198.293 693.242 198.293V201.623C692.547 201.623 691.888 201.659 691.193 201.659V198.366ZM688.449 198.476C689.107 198.439 689.729 198.403 690.388 198.403V201.659C689.729 201.659 689.107 201.696 688.449 201.696V198.476ZM685.997 198.586C686.546 198.549 687.095 198.549 687.607 198.513V201.696C687.058 201.696 686.509 201.733 685.997 201.733V198.586ZM685.997 203.233C689.839 203.16 693.717 203.123 697.559 203.123C694.961 203.965 692.29 204.404 689.363 204.148C687.68 204.001 685.997 203.709 684.387 203.27H685.265C685.375 203.562 685.851 203.562 685.997 203.233ZM683.692 198.695C684.204 198.659 684.717 198.659 685.229 198.622V201.733C684.717 201.733 684.204 201.769 683.692 201.769V198.695ZM682.851 198.732V201.769C682.155 201.769 681.497 201.806 680.802 201.806V198.805C681.497 198.769 682.192 198.769 682.851 198.732ZM678.789 198.915C679.192 198.915 679.594 198.878 679.997 198.842V201.769C679.594 201.586 679.192 201.44 678.789 201.257V198.915ZM676.667 199.025C677.106 198.988 677.545 198.988 677.984 198.952V200.891C677.545 200.671 677.106 200.489 676.667 200.232V199.025ZM675.862 199.061V199.83C675.423 199.61 674.984 199.354 674.545 199.098C674.984 199.098 675.423 199.061 675.862 199.061ZM673.704 200.928C674.252 201.257 674.801 201.623 675.35 201.952C674.801 201.952 674.252 201.989 673.704 201.989V200.928ZM670.776 199.281H670.996C671.106 199.354 671.252 199.427 671.362 199.501C671.874 199.793 672.386 200.123 672.899 200.452V202.025C672.203 202.025 671.472 202.062 670.776 202.099V199.281ZM668.435 199.391C668.947 199.354 669.459 199.354 669.935 199.318V202.025C669.459 201.147 668.947 200.269 668.435 199.391ZM669.057 202.135C668.764 202.135 668.508 202.135 668.215 202.172V200.671L669.057 202.135ZM669.569 198.439C669.02 198.476 668.508 198.513 667.959 198.513L667.118 197.049C667.923 197.525 668.727 197.964 669.569 198.439ZM666.496 197.634L667.044 198.586C666.788 198.586 666.532 198.622 666.239 198.622C666.313 198.293 666.386 197.964 666.496 197.634ZM667.41 199.464V202.172C666.752 202.172 666.056 202.208 665.398 202.245C665.617 201.33 665.837 200.452 666.057 199.537C666.496 199.501 666.935 199.464 667.41 199.464ZM665.91 196.427C665.727 197.159 665.544 197.927 665.361 198.659C664.849 198.695 664.337 198.732 663.825 198.732C663.349 197.378 662.873 195.988 662.398 194.634C663.605 195.219 664.776 195.841 665.91 196.427ZM664.154 199.61C664.3 199.61 664.41 199.61 664.556 199.574V200.708C664.447 200.379 664.3 199.976 664.154 199.61ZM664.227 202.282C663.642 202.282 663.093 202.318 662.507 202.318V199.683C662.764 199.683 663.056 199.647 663.312 199.647C663.642 200.525 663.934 201.403 664.227 202.282ZM663.02 198.805C662.105 198.842 661.227 198.915 660.349 198.952C660.824 197.671 661.3 196.427 661.776 195.146L663.02 198.805ZM661.702 199.757V202.355C661.19 202.355 660.678 202.391 660.166 202.391V199.83C660.715 199.793 661.19 199.757 661.702 199.757ZM661.3 194.085C660.678 195.732 660.093 197.342 659.471 198.988C658.849 199.025 658.227 199.061 657.605 199.098C656.8 196.427 655.885 193.792 654.824 191.194C657.019 192.072 659.178 193.06 661.3 194.085ZM659.361 201.476V202.428H658.995C659.141 202.135 659.251 201.806 659.361 201.476ZM658.373 201.842C658.19 201.22 658.044 200.562 657.861 199.94C658.263 199.903 658.702 199.903 659.105 199.866C658.885 200.525 658.629 201.184 658.373 201.842ZM656.763 199.135C655.556 199.208 654.385 199.281 653.177 199.318C653.58 196.976 653.982 194.634 654.385 192.292C655.263 194.524 656.068 196.829 656.763 199.135ZM656.726 200.013V202.538C656.068 202.574 655.446 202.574 654.787 202.611V200.123C655.446 200.086 656.104 200.049 656.726 200.013ZM653.982 200.159V202.611C653.507 202.611 653.068 202.647 652.592 202.647C652.738 201.806 652.885 201.001 653.031 200.159C653.36 200.196 653.653 200.159 653.982 200.159ZM649.884 189.218C651.202 189.694 652.519 190.243 653.836 190.755C653.36 193.609 652.848 196.5 652.372 199.354C651.897 199.391 651.421 199.391 650.909 199.427L648.714 188.742C649.116 188.925 649.518 189.072 649.884 189.218ZM652.226 200.232C652.153 200.708 652.043 201.22 651.97 201.696V200.232C652.043 200.269 652.116 200.232 652.226 200.232ZM650.763 202.757C650.323 202.757 649.848 202.794 649.409 202.794V200.379C649.701 200.379 649.994 200.342 650.25 200.342C650.433 201.147 650.58 201.952 650.763 202.757ZM650.104 199.501C648.714 199.574 647.323 199.647 645.933 199.72C646.701 196.537 647.433 193.39 648.201 190.206C648.823 193.316 649.445 196.39 650.104 199.501ZM648.604 200.452V202.83C647.945 202.867 647.323 202.867 646.665 202.904V200.525C647.323 200.525 647.945 200.488 648.604 200.452ZM647.762 188.413C646.848 192.182 645.969 195.988 645.055 199.757C644.469 199.793 643.92 199.83 643.335 199.866C642.237 195.219 641.176 190.535 640.079 185.888C642.75 186.62 645.311 187.535 647.762 188.413ZM645.86 200.598V202.94C645.64 202.94 645.384 202.977 645.164 202.977C645.347 202.172 645.53 201.403 645.713 200.598H645.86ZM644.872 200.635L644.323 203.013H644.213V200.671C644.433 200.671 644.652 200.635 644.872 200.635ZM643.298 203.05C642.75 203.087 642.237 203.087 641.689 203.123V200.818C642.054 200.781 642.384 200.781 642.75 200.745C642.933 201.513 643.116 202.282 643.298 203.05ZM642.567 199.903C640.92 200.013 639.31 200.086 637.664 200.196C638.615 196.134 639.31 192.036 639.786 187.901C640.701 191.926 641.615 195.914 642.567 199.903ZM640.884 200.854V203.16C640.262 203.196 639.676 203.233 639.054 203.233V200.928C639.64 200.928 640.262 200.891 640.884 200.854ZM638.213 201.001V203.27C637.774 203.306 637.298 203.306 636.859 203.343C637.078 202.574 637.261 201.806 637.444 201.037C637.7 201.037 637.957 201.001 638.213 201.001ZM639.201 185.632C638.725 190.572 637.957 195.439 636.822 200.232C636.493 200.269 636.127 200.269 635.798 200.306C634.627 195 633.42 189.73 632.249 184.425C634.554 184.608 636.895 185.047 639.201 185.632ZM635.651 203.416C635.249 203.452 634.847 203.452 634.481 203.489V201.22C634.7 201.22 634.956 201.184 635.176 201.184C635.322 201.916 635.469 202.684 635.651 203.416ZM634.956 200.379C633.31 200.488 631.663 200.562 630.017 200.671C630.639 195.988 631.261 191.267 631.883 186.583C632.907 191.157 633.932 195.768 634.956 200.379ZM633.639 201.257V203.526C633.017 203.562 632.432 203.599 631.81 203.635V201.367C632.432 201.33 633.054 201.294 633.639 201.257ZM631.005 201.403V203.672C630.529 203.709 630.09 203.709 629.614 203.745C629.724 202.977 629.797 202.245 629.907 201.476C630.273 201.44 630.639 201.44 631.005 201.403ZM625.992 184.681C627.785 184.351 629.578 184.278 631.371 184.388L629.212 200.708C628.956 200.708 628.7 200.745 628.48 200.745C627.456 195.439 626.468 190.096 625.443 184.79C625.626 184.754 625.809 184.717 625.992 184.681ZM628.224 203.818C627.822 203.855 627.456 203.855 627.053 203.892V201.659C627.309 201.659 627.565 201.623 627.822 201.623C627.931 202.318 628.078 203.087 628.224 203.818ZM627.639 200.818C626.065 200.928 624.492 201.001 622.882 201.111L625.004 187.132C625.919 191.67 626.76 196.244 627.639 200.818ZM626.212 201.696V203.928C625.773 203.965 625.334 203.965 624.894 204.001V201.769C625.334 201.733 625.773 201.696 626.212 201.696ZM622.772 202.025C622.772 201.989 622.772 201.916 622.809 201.879C623.248 201.842 623.687 201.842 624.126 201.806V204.038C623.687 204.075 623.248 204.075 622.809 204.111V202.062C622.785 202.062 622.772 202.05 622.772 202.025ZM624.565 184.973C623.724 190.352 622.919 195.768 622.077 201.147C621.748 201.184 621.455 201.184 621.126 201.22C620.101 196.5 619.04 191.78 618.016 187.096C620.138 186.181 622.333 185.449 624.565 184.973ZM621.967 201.952L621.711 203.709C621.601 203.123 621.455 202.574 621.345 201.989C621.528 201.952 621.748 201.952 621.967 201.952ZM620.979 204.221C620.87 204.221 620.76 204.221 620.65 204.258V202.721C620.76 203.196 620.87 203.709 620.979 204.221ZM620.321 201.257C619.004 201.33 617.687 201.403 616.369 201.513C616.808 197.525 617.284 193.573 617.723 189.584C618.601 193.463 619.443 197.342 620.321 201.257ZM619.809 202.062V204.294C619.26 204.331 618.711 204.367 618.199 204.404V202.172C618.748 202.135 619.296 202.099 619.809 202.062ZM617.394 202.208V204.44C616.955 204.477 616.479 204.514 616.04 204.514C616.113 203.745 616.223 203.013 616.296 202.245C616.662 202.245 617.028 202.208 617.394 202.208ZM617.174 187.425L615.564 201.55C615.345 201.55 615.089 201.586 614.869 201.586C613.955 197.634 613.076 193.719 612.162 189.767C613.808 188.925 615.455 188.12 617.174 187.425ZM614.723 204.623C614.43 204.66 614.137 204.66 613.845 204.697V202.464C613.954 202.464 614.101 202.464 614.211 202.428C614.357 203.123 614.54 203.855 614.723 204.623ZM614.028 201.623C612.784 201.696 611.54 201.769 610.296 201.842C610.991 198.659 611.503 195.439 611.869 192.182C612.601 195.329 613.296 198.476 614.028 201.623ZM613.003 202.464V204.697C612.528 204.733 612.052 204.77 611.576 204.77V202.538C612.052 202.538 612.528 202.501 613.003 202.464ZM610.771 202.611V204.843C610.369 204.88 609.966 204.88 609.564 204.916C609.747 204.148 609.93 203.379 610.113 202.647C610.332 202.647 610.552 202.611 610.771 202.611ZM611.247 190.206C610.918 194.158 610.296 198.073 609.454 201.916C608.978 201.952 608.466 201.989 607.991 202.025L605.686 193.17C607.515 192.182 609.381 191.157 611.247 190.206ZM609.271 202.721C609.161 203.16 609.052 203.635 608.942 204.075V202.721H609.271ZM607.954 205.026C607.552 205.063 607.149 205.099 606.71 205.099V202.867C606.93 202.867 607.149 202.83 607.369 202.83C607.552 203.562 607.734 204.294 607.954 205.026ZM607.186 202.062C606.125 202.135 605.064 202.208 604.039 202.245L605.356 194.926C605.942 197.305 606.564 199.683 607.186 202.062ZM605.905 202.94V205.209C605.429 205.245 604.954 205.282 604.478 205.319V203.05C604.954 202.977 605.429 202.94 605.905 202.94ZM603.71 194.195C604.039 194.012 604.405 193.829 604.734 193.646L603.161 202.282C602.795 202.318 602.429 202.318 602.063 202.355C601.368 200.306 600.673 198.22 599.978 196.171C601.222 195.512 602.466 194.853 603.71 194.195ZM603.015 203.123C602.941 203.562 602.868 204.038 602.758 204.477C602.612 204.038 602.466 203.599 602.319 203.16C602.575 203.123 602.795 203.123 603.015 203.123ZM601.222 202.428C600.27 202.501 599.356 202.538 598.404 202.611C598.807 200.964 599.209 199.318 599.612 197.671C600.161 199.244 600.709 200.854 601.222 202.428ZM601.222 203.233V205.502C600.783 205.538 600.344 205.575 599.905 205.611V203.306C600.344 203.269 600.783 203.27 601.222 203.233ZM599.1 203.343V205.648C598.624 205.685 598.148 205.721 597.673 205.758C597.856 204.989 598.039 204.184 598.221 203.416C598.514 203.379 598.807 203.379 599.1 203.343ZM599.026 196.72C598.551 198.695 598.075 200.671 597.599 202.684C597.197 202.721 596.831 202.721 596.429 202.757C596.063 201.44 595.697 200.123 595.331 198.805C596.538 198.073 597.782 197.378 599.026 196.72ZM596.429 205.868C595.99 205.904 595.551 205.941 595.111 205.977V203.635C595.331 203.635 595.551 203.599 595.77 203.599C595.99 204.331 596.209 205.099 596.429 205.868ZM595.587 202.794C595.075 202.83 594.599 202.867 594.087 202.904C594.343 201.989 594.599 201.111 594.855 200.196L595.587 202.794ZM594.307 203.672V206.014C593.904 206.051 593.538 206.087 593.136 206.087C593.355 205.282 593.611 204.477 593.831 203.672C593.977 203.672 594.16 203.672 594.307 203.672ZM594.233 199.354C593.904 200.562 593.538 201.733 593.209 202.94C592.66 202.977 592.111 203.013 591.562 203.05C591.379 202.428 591.196 201.842 590.977 201.22C592.075 200.598 593.136 199.976 594.233 199.354ZM590.135 204.038C590.135 204.001 590.172 203.965 590.172 203.928C590.428 203.928 590.721 203.892 590.977 203.892L591.709 206.233C591.196 206.27 590.648 206.307 590.135 206.343V204.038ZM589.952 201.806C589.806 202.245 589.696 202.684 589.55 203.16C588.818 203.196 588.086 203.233 587.391 203.306C588.233 202.794 589.074 202.318 589.952 201.806ZM586.989 204.148C587.757 204.111 588.526 204.038 589.294 204.001L588.562 206.49C588.05 206.526 587.501 206.563 586.989 206.599V204.148ZM690.681 216.699H586.989V208.209C590.245 207.953 593.502 207.661 596.758 207.404C596.904 207.478 597.051 207.441 597.197 207.368C600.892 207.075 604.588 206.819 608.32 206.563C608.466 206.673 608.722 206.673 608.832 206.526C613.259 206.233 617.723 205.941 622.15 205.648C622.297 205.721 622.48 205.721 622.626 205.611C623.87 205.538 625.114 205.465 626.358 205.392C626.541 205.538 626.797 205.538 626.943 205.355C643.847 204.404 660.751 203.745 677.692 203.416C681.863 206.014 686.07 208.539 690.681 210.332V216.699ZM717.134 216.699H695.437V210.112C700.633 209.454 704.584 206.197 708.609 203.087C711.463 203.087 714.28 203.087 717.134 203.123V216.699ZM717.134 201.476H716C716 201.44 716.036 201.403 716.036 201.367V198.33C716.402 198.183 716.768 198.037 717.171 197.89V201.476H717.134Z" fill="#303030"/>
</g>
<defs>
<clipPath id="clip0_149_109">
<rect width="885.624" height="301.567" fill="white"/>
</clipPath>
</defs>
</svg>
